<svg xmlns="http://www.w3.org/2000/svg" xmlns:xlink="http://www.w3.org/1999/xlink" viewBox="0 0 492.44 628"><defs><style>.cls-1{fill:none;}.cls-2{clip-path:url(#clip-path);}.cls-3{clip-path:url(#clip-path-2);}</style><clipPath id="clip-path" transform="translate(41.95 101)"><path class="cls-1" d="M202.05,0c-5.85,1.18-33.26,7.39-46.67,36.3-2.53,5.47,3.18-5.22-7.07,26.36C143.06,78.84,127.08,123,139.05,131c9.26,6.23-3.84,7.6-10,15.23-4.65,5.74-11.37,6.88-15,30.77-3,20-4.63,36-6.88,36-2.54,0-6.77-18.63-8.12-24-60.67-27.34-75.45-35.06-83-38-6.46-2.52,4.92,43.26,3.05,62-1.6,16-27.2-21.48-16.49-4.06,10.06,16.36,1.68,41.32,10.06,54.93,3.9,6.35,5.78,9.48,11.38,5.13,5.06-3.93,8.55,4.35,8,16,23,9.67,56,22.56,79,32.23-.61,8.66-10.93,17.36-14,34.77-5.46,31.2-6.23,32.59-10.45,69.37-4.5,39.22-2.1,48-12.86,70.72C67.27,505.74,63.18,506.6,64.05,511c7.38,37.24,195.69,68.8,203,8,1.38-11.47-14.24-16.63-4.31-45.56,12.51-36.44,8.32-71.53,14.31-92.44l43-7h0c2.24,1.47,9.81-4.2,11.48-.2,4.3,10.32-4.5,28.29-16.48,47.2-9.37,14.8-5,35.8-5,36h0c-.72,2.69-.67,4,4.12,9.37,7,7.88,21.24,9.37,25.88,7.63s8.91-4.33,14-10.84c7-9,6.29-16.72,6-47.16-.25-28.15,2.88-26.25,1-43-.93-8.32-2.33-14.4,0-23,2.83-10.45,2.42-11,3.9-19.91,1-6.23,2.15-10.25-3.21-27.65A184.51,184.51,0,0,0,357.05,279c-6.59-24-6.57-23.61-11.38-37.63-5.38-15.68-5.39-13.5-15.62-37.37-4.53-10.55-8.31-12.88-13.95-24.34-6-12.19-7.41-20.12-10.05-23.66-4.85-6.5-8.43-11.3-15-16-3.58-2.56-11.56-3.08-21.24-4.7-9.34-1.56-11.62-3-15.76-6.3-4-3.16-4.42-8.73-5-16a53.8,53.8,0,0,1,2-19c1.86-6.28,3.41-7.11,4-12a25.26,25.26,0,0,0-2-14c-5.1-11.77,2.07,4.59-5.56-23.55-5-18.51-7.44-25.82-8.44-27.45-5.2-8.47-31.67-14.3-37-17"/></clipPath><clipPath id="clip-path-2" transform="translate(41.95 101)"><rect class="cls-1" x="-41.95" y="-101" width="492.44" height="628"/></clipPath></defs><g id="Layer_2" data-name="Layer 2"><g id="Layer_1-2" data-name="Layer 1"><g class="cls-2"><g class="cls-3"><image width="712" height="908" transform="scale(0.69)" xlink:href="../../../mom1.png"/></g></g></g></g></svg>