<svg xmlns="http://www.w3.org/2000/svg" viewBox="0 0 438.68 382.92"><defs><style>.cls-1{fill:#c9efff;}</style></defs><g id="Layer_2" data-name="Layer 2"><g id="Layer_1-2" data-name="Layer 1"><path class="cls-1" d="M220.49,1.79C166.68-3.48,108,1.48,66.13,35.65,34.91,61.1,17,99.76,7.6,138.92c-12.55,52.16-11.08,109.89,16,156.2,18.4,31.49,47.82,56,81.25,70.55S175.56,385.12,211.9,382c87.88-7.45,170-63.83,208.56-143.16,16.86-34.7,25.51-76.19,10.45-111.7-7.5-17.69-20.45-31.51-31.18-47.15-6.34-9.25-10.88-19.91-18-28.58C373.11,41,360.17,36,347.85,31.37A504.74,504.74,0,0,0,227.53,2.53C225.18,2.27,222.84,2,220.49,1.79Z"/></g></g></svg>