<svg xmlns="http://www.w3.org/2000/svg" viewBox="0 0 151.17 131.96"><defs><style>.cls-1{fill:#c9efff;}</style></defs><g id="Layer_2" data-name="Layer 2"><g id="Layer_1-2" data-name="Layer 1"><path class="cls-1" d="M76,.62C57.44-1.2,37.23.51,22.79,12.28,12,21.06,5.87,34.38,2.62,47.87c-4.33,18-3.82,37.87,5.51,53.83a60.2,60.2,0,0,0,28,24.32A76.62,76.62,0,0,0,73,131.66c30.29-2.57,58.59-22,71.88-49.34,5.8-12,8.79-26.26,3.6-38.49-2.59-6.1-7.05-10.86-10.75-16.25-2.18-3.19-3.75-6.86-6.21-9.85-3-3.6-7.42-5.33-11.67-6.92A174.46,174.46,0,0,0,78.41.87Z"/></g></g></svg>